<?xml version="1.0" encoding="UTF-8"?>
<svg xmlns="http://www.w3.org/2000/svg" version="1.1" viewBox="0 0 214.3 214.3">
  <defs>
    <style>
      .cls-1 {
        fill: #e4003f;
      }

      .cls-2 {
        fill: #e9530d;
      }
    </style>
  </defs>
  <!-- Generator: Adobe Illustrator 28.7.2, SVG Export Plug-In . SVG Version: 1.2.0 Build 154)  -->
  <g>
    <g id="Layer_1">
      <g>
        <path class="cls-1" d="M162.9,147.1l-28.3-28.3-11.4-11.4,11.4-11.4,28.3-28.3c-2.2-3.1-4.6-6-7.4-8.7s-5.7-5.2-8.7-7.4l-28.3,28.3-11.4,11.4-11.4-11.4-28.3-28.3c-3.1,2.2-6,4.6-8.7,7.4-2.8,2.8-5.2,5.7-7.4,8.7l28.3,28.3,11.4,11.4-11.4,11.4-28.3,28.3c2.2,3.1,4.6,6,7.4,8.7,2.8,2.8,5.7,5.2,8.7,7.4l28.3-28.3,11.4-11.4,11.4,11.4,28.3,28.3c3.1-2.2,6-4.6,8.7-7.4,2.8-2.8,5.2-5.7,7.4-8.7Z"/>
        <path class="cls-2" d="M175.4,95.7h-56.7v-56.7c-3.7-.6-7.6-1-11.5-1s-7.8.3-11.5,1v56.7h-56.7c-.6,3.7-1,7.6-1,11.5s.3,7.8,1,11.5h56.7v56.7c3.7.6,7.6,1,11.5,1s7.8-.3,11.5-1v-56.7h56.7c.6-3.7,1-7.6,1-11.5s-.3-7.8-1-11.5Z"/>
      </g>
    </g>
  </g>
</svg>